<svg width="24" height="24" viewBox="0 0 24 24" fill="none" xmlns="http://www.w3.org/2000/svg">
<path d="M3.06156 7.21783L2.32079 7.1005L2.32079 7.1005L3.06156 7.21783ZM7.21783 3.06156L7.33515 3.80232L7.33515 3.80232L7.21783 3.06156ZM7.21783 20.9384L7.1005 21.6792L7.1005 21.6792L7.21783 20.9384ZM3.06156 16.7822L2.32079 16.8995L2.32079 16.8995L3.06156 16.7822ZM13.4504 20.6C13.7816 20.3513 13.8484 19.8811 13.5997 19.5499C13.3509 19.2187 12.8808 19.1519 12.5496 19.4007L13.4504 20.6ZM12.5496 4.59931C12.8808 4.84808 13.3509 4.78126 13.5997 4.45007C13.8484 4.11888 13.7816 3.64873 13.4504 3.39996L12.5496 4.59931ZM21 12.75C21.4142 12.75 21.75 12.4142 21.75 12C21.75 11.5858 21.4142 11.25 21 11.25V12.75ZM11.466 8.58768C11.7905 8.33033 11.845 7.8586 11.5877 7.53403C11.3303 7.20946 10.8586 7.15497 10.534 7.41232L11.466 8.58768ZM9.23703 9.39785L8.77106 8.81016L8.77106 8.81016L9.23703 9.39785ZM9.23703 14.6022L9.703 14.0145L9.703 14.0145L9.23703 14.6022ZM10.534 16.5877C10.8586 16.845 11.3303 16.7905 11.5877 16.466C11.845 16.1414 11.7905 15.6697 11.466 15.4123L10.534 16.5877ZM7.01989 11.7493L6.27923 11.6313L6.27923 11.6313L7.01989 11.7493ZM7.01989 12.2507L6.27923 12.3687L6.27923 12.3687L7.01989 12.2507ZM10 20.25H9V21.75H10V20.25ZM3.75 15V9L2.25 9V15H3.75ZM9 3.75L10 3.75V2.25L9 2.25V3.75ZM3.75 9C3.75 8.04233 3.75233 7.65082 3.80232 7.33515L2.32079 7.1005C2.24767 7.56216 2.25 8.09965 2.25 9L3.75 9ZM9 2.25C8.09965 2.25 7.56216 2.24767 7.1005 2.32079L7.33515 3.80232C7.65082 3.75233 8.04233 3.75 9 3.75V2.25ZM3.80232 7.33515C4.09035 5.51661 5.51661 4.09035 7.33515 3.80232L7.1005 2.32079C4.64012 2.71048 2.71048 4.64012 2.32079 7.1005L3.80232 7.33515ZM9 20.25C8.04233 20.25 7.65082 20.2477 7.33515 20.1977L7.1005 21.6792C7.56216 21.7523 8.09965 21.75 9 21.75V20.25ZM2.25 15C2.25 15.9003 2.24767 16.4378 2.32079 16.8995L3.80232 16.6648C3.75233 16.3492 3.75 15.9577 3.75 15H2.25ZM7.33515 20.1977C5.51661 19.9096 4.09035 18.4834 3.80232 16.6648L2.32079 16.8995C2.71048 19.3599 4.64012 21.2895 7.1005 21.6792L7.33515 20.1977ZM10 21.75C11.2936 21.75 12.4894 21.3219 13.4504 20.6L12.5496 19.4007C11.8393 19.9342 10.9576 20.25 10 20.25V21.75ZM10 3.75C10.9576 3.75 11.8393 4.06583 12.5496 4.59931L13.4504 3.39996C12.4894 2.67806 11.2936 2.25 10 2.25V3.75ZM21 11.25L8 11.25V12.75L21 12.75V11.25ZM10.534 7.41232L8.77106 8.81016L9.703 9.98553L11.466 8.58768L10.534 7.41232ZM8.77106 15.1898L10.534 16.5877L11.466 15.4123L9.703 14.0145L8.77106 15.1898ZM8.77106 8.81016C8.08245 9.35616 7.51484 9.80475 7.11252 10.2055C6.70685 10.6096 6.37055 11.0582 6.27923 11.6313L7.76055 11.8673C7.77747 11.7612 7.84678 11.5913 8.17113 11.2682C8.49884 10.9418 8.98568 10.5543 9.703 9.98553L8.77106 8.81016ZM9.703 14.0145C8.98568 13.4457 8.49884 13.0582 8.17113 12.7318C7.84678 12.4087 7.77747 12.2388 7.76055 12.1327L6.27923 12.3687C6.37055 12.9418 6.70685 13.3904 7.11252 13.7945C7.51484 14.1953 8.08245 14.6438 8.77106 15.1898L9.703 14.0145ZM6.27923 11.6313C6.25978 11.7534 6.25 11.8766 6.25 12L7.75 12C7.75 11.9559 7.75348 11.9117 7.76055 11.8673L6.27923 11.6313ZM6.25 12C6.25 12.1234 6.25978 12.2466 6.27923 12.3687L7.76055 12.1327C7.75348 12.0883 7.75 12.0441 7.75 12L6.25 12ZM8 11.25H7V12.75H8V11.25Z" fill="#2D264B"/>
</svg>
