<svg width="20" height="20" viewBox="0 0 20 20" fill="none" xmlns="http://www.w3.org/2000/svg">
<path d="M12.725 16.1345L12.1349 15.6717L12.725 16.1345ZM8.22397 16.1345L8.81415 15.6717L8.22397 16.1345ZM10.4745 18V17.25V18ZM16.199 7.96713C16.199 8.92025 15.6981 10.2207 14.8852 11.6579C14.0889 13.0656 13.0582 14.4942 12.1349 15.6717L13.3152 16.5974C14.2611 15.3911 15.3424 13.8962 16.1908 12.3964C17.0226 10.9258 17.699 9.33448 17.699 7.96713H16.199ZM8.81415 15.6717C7.89077 14.4942 6.86008 13.0656 6.0638 11.6579C5.25092 10.2207 4.75 8.92025 4.75 7.96713H3.25C3.25 9.33448 3.92641 10.9258 4.75819 12.3964C5.60657 13.8962 6.68786 15.3911 7.6338 16.5974L8.81415 15.6717ZM4.75 7.96713C4.75 4.48076 7.36379 1.75 10.4745 1.75V0.25C6.43367 0.25 3.25 3.75782 3.25 7.96713H4.75ZM10.4745 1.75C13.5852 1.75 16.199 4.48076 16.199 7.96713H17.699C17.699 3.75782 14.5153 0.25 10.4745 0.25V1.75ZM12.1349 15.6717C11.6308 16.3145 11.3094 16.7202 11.0251 16.9785C10.7729 17.2076 10.6259 17.25 10.4745 17.25V18.75C11.1108 18.75 11.6014 18.4815 12.0337 18.0888C12.4339 17.7252 12.844 17.1982 13.3152 16.5974L12.1349 15.6717ZM7.6338 16.5974C8.10498 17.1982 8.51506 17.7252 8.9153 18.0888C9.34765 18.4815 9.83824 18.75 10.4745 18.75V17.25C10.3231 17.25 10.1761 17.2076 9.92388 16.9785C9.63958 16.7202 9.31821 16.3145 8.81415 15.6717L7.6338 16.5974ZM7.29656 8.28382C7.29656 10.0389 8.71938 11.4618 10.4745 11.4618V9.96175C9.5478 9.96175 8.79656 9.21052 8.79656 8.28382H7.29656ZM10.4745 11.4618C12.2296 11.4618 13.6524 10.0389 13.6524 8.28382H12.1524C12.1524 9.21052 11.4012 9.96175 10.4745 9.96175V11.4618ZM13.6524 8.28382C13.6524 6.52869 12.2296 5.10588 10.4745 5.10588V6.60588C11.4012 6.60588 12.1524 7.35712 12.1524 8.28382H13.6524ZM10.4745 5.10588C8.71938 5.10588 7.29656 6.52869 7.29656 8.28382H8.79656C8.79656 7.35712 9.5478 6.60588 10.4745 6.60588V5.10588Z" fill="black"/>
</svg>
